<svg xmlns="http://www.w3.org/2000/svg" height="300" width="300" viewbox="0 0 300 300"><line x1="30" y1="270" x2="275" y2="270" style="stroke:black;stroke-width:2" /><polygon points="280,270 275,265 275,275" style="fill:black;stroke:black;stroke-width:1" /><line x1="30" y1="270" x2="30" y2="30" style="stroke:black;stroke-width:2" /><polygon points="30,25 25,30 35,30" style="fill:black;stroke:black;stroke-width:1" /><line x1="230" y1="265" x2="230" y2="275" style="stroke:black;stroke-width:2" /><text x="225" y="290" fill="black" font-size="20px">a</text><line x1="25" y1="70" x2="35" y2="70" style="stroke:black;stroke-width:2" /><text x="10" y="75" fill="black" font-size="20px">b</text><line x1="33" y1="267" x2="225" y2="75" style="stroke:black;stroke-width:6;stroke-linecap:round" /><polygon points="230,70 220,57 240,57" style="fill:black;stroke:black;stroke-width:1" transform="rotate(-135 230 70)" /><path d="M 80 270 Q 80 250 60 240" style="stroke:black" stroke-width="3" fill="none" /><text x="85" y="255" fill="black" font-size="25px">θ</text><text x="130" y="170" fill="black" font-size="25px" transform="rotate(-45 120 180)">m</text></svg>
